<?xml version="1.0" ?><svg enable-background="new 0 0 12 12" id="Слой_1" version="1.1" viewBox="0 0 12 12" xml:space="preserve" xmlns="http://www.w3.org/2000/svg" xmlns:xlink="http://www.w3.org/1999/xlink"><path d="M8.5,2V1.5C8.5,0.6728516,7.8271484,0,7,0H5C4.1728516,0,3.5,0.6728516,3.5,1.5V2H1v1h0.5v7.5  C1.5,11.3271484,2.1728516,12,3,12h6c0.8271484,0,1.5-0.6728516,1.5-1.5V3H11V2H8.5z M4.5,10h-1V4.5h1V10z M4.5,1.5  C4.5,1.2246094,4.7246094,1,5,1h2c0.2753906,0,0.5,0.2246094,0.5,0.5V2h-3V1.5z M6.5,10h-1V4.5h1V10z M8.5,10h-1V4.5h1V10z" fill="#1D1D1B"/></svg>